<?xml version="1.0" encoding="UTF-8"?>
<svg id="Layer_2" data-name="Layer 2" xmlns="http://www.w3.org/2000/svg" viewBox="0 0 291.96 252.85">
  <defs>
    <style>
      .cls-1 {
        fill: #324a9e;
      }

      .cls-2 {
        stroke: #324a9e;
        stroke-width: 19px;
      }

      .cls-2, .cls-3 {
        fill: none;
        stroke-miterlimit: 10;
      }

      .cls-3 {
        stroke: #000;
        stroke-width: 7px;
      }
    </style>
  </defs>
  <g id="Layer_2-2" data-name="Layer 2">
    <g>
      <polygon class="cls-1" points="213.49 9.5 78.48 9.5 10.97 126.42 78.48 243.35 213.49 243.35 280.99 126.42 213.49 9.5"/>
      <polygon class="cls-2" points="213.49 9.5 78.48 9.5 10.97 126.42 78.48 243.35 213.49 243.35 280.99 126.42 213.49 9.5"/>
      <polygon class="cls-3" points="213.49 9.5 78.48 9.5 10.97 126.42 78.48 243.35 213.49 243.35 280.99 126.42 213.49 9.5"/>
    </g>
    <g>
      <path d="M63.58,113.77c-.35-3.4-2.4-5.05-6.6-5.05-3.9,0-5.95,1.4-5.95,3.9,0,2.1,1.45,3.3,5.15,4.2,3.75.9,7.4,1.8,9.85,2.9,2.9,1.3,5.2,3.35,5.2,8.05,0,7.3-5.5,10.55-13.25,10.55-8.2,0-13.9-3.65-14.05-11.1h6.7c.1,3.4,2.95,5.5,7.4,5.5,4.1,0,6.45-1.75,6.45-4.7,0-1.95-1-3.3-5.15-4.2-4.1-.9-6.75-1.5-9.1-2.55-3.55-1.6-5.55-4-5.55-8.2,0-5.95,4.05-10.2,12.15-10.2s13.1,4.55,13.35,10.9h-6.6Z"/>
      <path d="M72.93,137.17v-33.2h24.4v5.8h-17.65v7.1h16.25v5.85h-16.25v8.55h18.45v5.9h-25.2Z"/>
      <path d="M108.58,137.17v-27.4h-10v-5.8h27v5.8h-10.05v27.4h-6.95Z"/>
      <path d="M136.53,137.17v-27.4h-10v-5.8h27v5.8h-10.05v27.4h-6.95Z"/>
      <path d="M155.18,137.17v-33.2h6.95v33.2h-6.95Z"/>
      <path d="M185.18,137.17l-14.2-22.3v22.3h-6.45v-33.2h7.35l13.2,21.35v-21.35h6.5v33.2h-6.4Z"/>
      <path d="M218.83,137.17l-.15-3.3c-1.6,2.8-5.4,4.45-9.95,4.45-9.2,0-15.05-8.55-15.05-17.8,0-9.8,5.6-17.65,16.35-17.65,7.9,0,14,4.7,14.5,11.35h-7c-.35-3.1-3.7-5.6-7.5-5.6-5.55,0-9.25,4.3-9.25,12.2,0,5.45,2.75,11.65,9.2,11.65,4.55,0,8.1-3.45,8.1-7.6h-7.35v-5.55h13.85v17.85h-5.75Z"/>
      <path d="M245.78,113.77c-.35-3.4-2.4-5.05-6.6-5.05-3.9,0-5.95,1.4-5.95,3.9,0,2.1,1.45,3.3,5.15,4.2,3.75.9,7.4,1.8,9.85,2.9,2.9,1.3,5.2,3.35,5.2,8.05,0,7.3-5.5,10.55-13.25,10.55-8.2,0-13.9-3.65-14.05-11.1h6.7c.1,3.4,2.95,5.5,7.4,5.5,4.1,0,6.45-1.75,6.45-4.7,0-1.95-1-3.3-5.15-4.2-4.1-.9-6.75-1.5-9.1-2.55-3.55-1.6-5.55-4-5.55-8.2,0-5.95,4.05-10.2,12.15-10.2s13.1,4.55,13.35,10.9h-6.6Z"/>
    </g>
  </g>
</svg>