<?xml version="1.0" encoding="UTF-8"?>
<svg id="Layer_2" data-name="Layer 2" xmlns="http://www.w3.org/2000/svg" viewBox="0 0 356.91 524.5">
  <defs>
    <style>
      .cls-1 {
        fill: #32499e;
      }

      .cls-2 {
        fill: #faaf40;
      }
    </style>
  </defs>
  <g id="Layer_2-2" data-name="Layer 2">
    <g>
      <path class="cls-2" d="M37.99,435.45h6.73v41.43c0,10.33-3.63,17.25-10.56,17.25-6.2,0-9.93-5.98-9.93-17.6v-5.81h6.1v5.21c0,5.72,1.07,8.54,3.83,8.54,3.1,0,3.83-2.48,3.83-8.71v-40.32Z"/>
      <path class="cls-2" d="M46.76,464.33c0-19.22,5.57-30.75,15.45-30.75s15.36,11.53,15.36,31.01-5.47,29.55-15.36,29.55-15.45-10.68-15.45-29.81ZM70.93,464.58c0-13.41-3.1-20.5-8.72-20.5s-8.82,7.09-8.82,20.5,3.25,19.39,8.82,19.39c4.84,0,8.72-5.98,8.72-19.39Z"/>
      <path class="cls-2" d="M98.89,492.17v-25.45h-12.55v25.45h-6.73v-56.72h6.73v21.36h12.55v-21.36h6.78v56.72h-6.78Z"/>
      <path class="cls-2" d="M128.05,492.17l-13.76-38.1v38.1h-6.25v-56.72h7.12l12.79,36.47v-36.47h6.3v56.72h-6.2Z"/>
      <path class="cls-2" d="M155.09,468.25v23.92h-6.73v-56.72h22.91v9.91h-16.18v12.9h14.15v9.99h-14.15Z"/>
      <path class="cls-2" d="M172.82,492.17v-56.72h6.73v46.38h15.94v10.34h-22.67Z"/>
      <path class="cls-2" d="M219.42,492.17l-2.03-11.7h-11.87l-2.28,11.7h-7.12l11.48-56.72h7.8l11.34,56.72h-7.31ZM211.43,448.18h-.05l-4.12,22.55h8.19l-4.02-22.55Z"/>
      <path class="cls-2" d="M228.82,492.17v-46.81h-9.69v-9.91h26.16v9.91h-9.74v46.81h-6.73Z"/>
      <path class="cls-2" d="M246.9,492.17v-56.72h6.73v46.38h15.94v10.34h-22.67Z"/>
      <path class="cls-2" d="M271.17,492.17v-56.72h6.73v56.72h-6.73Z"/>
      <path class="cls-2" d="M300.24,492.17l-13.76-38.1v38.1h-6.25v-56.72h7.12l12.79,36.47v-36.47h6.3v56.72h-6.2Z"/>
      <path class="cls-2" d="M308.86,492.17v-56.72h23.64v9.91h-17.1v12.13h15.74v9.99h-15.74v14.61h17.88v10.08h-24.42Z"/>
    </g>
    <path class="cls-1" d="M178.46,0H0v524.5h356.91V0h-178.46ZM348.53,514.43H8.98v-104.3h339.56v104.3ZM354.49,342.11v26.19l-92.29-.21-14,20.38H108.71l-14-20.38-92.29.21V2.43h352.06v339.69Z"/>
  </g>
</svg>