<?xml version="1.0" encoding="UTF-8"?>
<svg id="Layer_2" data-name="Layer 2" xmlns="http://www.w3.org/2000/svg" viewBox="0 0 291.96 252.85">
  <defs>
    <style>
      .cls-1 {
        fill: #324a9e;
      }

      .cls-2 {
        stroke: #324a9e;
        stroke-width: 19px;
      }

      .cls-2, .cls-3 {
        fill: none;
        stroke-miterlimit: 10;
      }

      .cls-3 {
        stroke: #000;
        stroke-width: 7px;
      }
    </style>
  </defs>
  <g id="Layer_2-2" data-name="Layer 2">
    <g>
      <polygon class="cls-1" points="213.49 9.5 78.48 9.5 10.97 126.42 78.48 243.35 213.49 243.35 280.99 126.42 213.49 9.5"/>
      <polygon class="cls-2" points="213.49 9.5 78.48 9.5 10.97 126.42 78.48 243.35 213.49 243.35 280.99 126.42 213.49 9.5"/>
      <polygon class="cls-3" points="213.49 9.5 78.48 9.5 10.97 126.42 78.48 243.35 213.49 243.35 280.99 126.42 213.49 9.5"/>
    </g>
    <g>
      <path d="M100.22,91.12c-.35-3.4-2.4-5.05-6.6-5.05-3.9,0-5.95,1.4-5.95,3.9,0,2.1,1.45,3.3,5.15,4.2,3.75.9,7.4,1.8,9.85,2.9,2.9,1.3,5.2,3.35,5.2,8.05,0,7.3-5.5,10.55-13.25,10.55-8.2,0-13.9-3.65-14.05-11.1h6.7c.1,3.4,2.95,5.5,7.4,5.5,4.1,0,6.45-1.75,6.45-4.7,0-1.95-1-3.3-5.15-4.2-4.1-.9-6.75-1.5-9.1-2.55-3.55-1.6-5.55-4-5.55-8.2,0-5.95,4.05-10.2,12.15-10.2s13.1,4.55,13.35,10.9h-6.6Z"/>
      <path d="M129.47,114.52v-14.9h-12.95v14.9h-6.95v-33.2h6.95v12.5h12.95v-12.5h7v33.2h-7Z"/>
      <path d="M158.57,81.32h7.1v22.15c0,8.05-4.95,12.2-13.65,12.2-8.05,0-13.1-3.8-13.1-11.8v-22.55h7.05v21.9c0,4.1,2.2,6.7,5.95,6.7,4.45,0,6.65-2.1,6.65-6.45v-22.15Z"/>
      <path d="M177.26,114.52v-27.4h-10v-5.8h27v5.8h-10.05v27.4h-6.95Z"/>
      <path d="M81.41,160.52v-33.2h12.85c9,0,15.4,6.15,15.4,16.25s-5.75,16.95-14.35,16.95h-13.9ZM93.92,154.87c6.05,0,8.65-3.8,8.65-11.3s-2.6-10.5-9.25-10.5h-5.15v21.8h5.75Z"/>
      <path d="M111.36,144.22c0-11.25,5.75-18,15.95-18s15.85,6.75,15.85,18.15-5.65,17.3-15.85,17.3-15.95-6.25-15.95-17.45ZM136.32,144.37c0-7.85-3.2-12-9-12s-9.1,4.15-9.1,12,3.35,11.35,9.1,11.35c5,0,9-3.5,9-11.35Z"/>
      <path d="M167.42,160.52l-5.15-21.6-5.25,21.6h-6.5l-9.4-33.2h7.4l5.45,21.5,4.6-21.5h7.3l5.05,21.5,5.4-21.5h7.1l-9.3,33.2h-6.7Z"/>
      <path d="M205.57,160.52l-14.2-22.3v22.3h-6.45v-33.2h7.35l13.2,21.35v-21.35h6.5v33.2h-6.4Z"/>
    </g>
  </g>
</svg>