<?xml version="1.0" encoding="UTF-8"?>
<svg id="Layer_2" data-name="Layer 2" xmlns="http://www.w3.org/2000/svg" viewBox="0 0 322.29 279.11">
  <defs>
    <style>
      .cls-1 {
        fill: #fff;
      }

      .cls-2 {
        stroke: #324a9e;
        stroke-width: 19px;
      }

      .cls-2, .cls-3 {
        fill: none;
        stroke-miterlimit: 10;
      }

      .cls-3 {
        stroke: #000;
        stroke-width: 7px;
      }
    </style>
  </defs>
  <g id="Layer_2-2" data-name="Layer 2">
    <g>
      <polygon class="cls-1" points="236.24 9.5 86.06 9.5 10.97 139.56 86.06 269.61 236.24 269.61 311.32 139.56 236.24 9.5"/>
      <polygon class="cls-2" points="236.24 9.5 86.06 9.5 10.97 139.56 86.06 269.61 236.24 269.61 311.32 139.56 236.24 9.5"/>
      <polygon class="cls-3" points="236.24 9.5 86.06 9.5 10.97 139.56 86.06 269.61 236.24 269.61 311.32 139.56 236.24 9.5"/>
    </g>
    <g>
      <path d="M76.12,166.73v-11.29c0-4.22-1.58-5.87-6.86-5.87h-9.77v17.16h-8.91v-43.82h22.24c8.12,0,13.46,5.41,13.46,12.67,0,4.69-2.31,8.65-6.53,10.16,3.89,1.25,5.35,3.43,5.35,8.58v12.41h-8.98ZM59.49,130.5v11.68h11.48c4.88,0,6.73-2.44,6.73-5.81s-1.85-5.87-6.4-5.87h-11.81Z"/>
      <path d="M88.73,166.73v-43.82h32.21v7.66h-23.3v9.37h21.45v7.72h-21.45v11.29h24.35v7.79h-33.26Z"/>
      <path d="M148.65,135.84c-.46-4.49-3.17-6.67-8.71-6.67-5.15,0-7.85,1.85-7.85,5.15,0,2.77,1.91,4.36,6.8,5.54,4.95,1.19,9.77,2.38,13,3.83,3.83,1.72,6.86,4.42,6.86,10.62,0,9.63-7.26,13.92-17.49,13.92-10.82,0-18.35-4.82-18.54-14.65h8.84c.13,4.49,3.89,7.26,9.77,7.26,5.41,0,8.51-2.31,8.51-6.2,0-2.57-1.32-4.36-6.8-5.54-5.41-1.19-8.91-1.98-12.01-3.37-4.69-2.11-7.33-5.28-7.33-10.82,0-7.85,5.35-13.46,16.04-13.46s17.29,6.01,17.62,14.39h-8.71Z"/>
      <path d="M186.93,122.91h9.37v29.24c0,10.62-6.53,16.1-18.02,16.1-10.62,0-17.29-5.02-17.29-15.57v-29.76h9.3v28.91c0,5.41,2.9,8.84,7.85,8.84,5.87,0,8.78-2.77,8.78-8.51v-29.24Z"/>
      <path d="M233.59,166.73v-30.03l-8.18,30.03h-9.11l-8.12-29.9v29.9h-8.51v-43.82h13.46l7.92,32.14,7.92-32.14h13.2v43.82h-8.58Z"/>
      <path d="M245.54,166.73v-43.82h32.21v7.66h-23.3v9.37h21.45v7.72h-21.45v11.29h24.35v7.79h-33.26Z"/>
    </g>
  </g>
</svg>