<?xml version="1.0" encoding="UTF-8"?>
<svg id="Layer_2" data-name="Layer 2" xmlns="http://www.w3.org/2000/svg" viewBox="0 0 291.96 252.85">
  <defs>
    <style>
      .cls-1 {
        fill: #fff;
      }

      .cls-2 {
        stroke: #324a9e;
        stroke-width: 19px;
      }

      .cls-2, .cls-3 {
        fill: none;
        stroke-miterlimit: 10;
      }

      .cls-3 {
        stroke: #000;
        stroke-width: 7px;
      }
    </style>
  </defs>
  <g id="Layer_2-2" data-name="Layer 2">
    <g>
      <polygon class="cls-1" points="213.49 9.5 78.48 9.5 10.97 126.42 78.48 243.35 213.49 243.35 280.99 126.42 213.49 9.5"/>
      <polygon class="cls-2" points="213.49 9.5 78.48 9.5 10.97 126.42 78.48 243.35 213.49 243.35 280.99 126.42 213.49 9.5"/>
      <polygon class="cls-3" points="213.49 9.5 78.48 9.5 10.97 126.42 78.48 243.35 213.49 243.35 280.99 126.42 213.49 9.5"/>
    </g>
    <g>
      <path d="M78.25,138.17v-8.55c0-3.2-1.2-4.45-5.2-4.45h-7.4v13h-6.75v-33.2h16.85c6.15,0,10.2,4.1,10.2,9.6,0,3.55-1.75,6.55-4.95,7.7,2.95.95,4.05,2.6,4.05,6.5v9.4h-6.8ZM65.65,110.72v8.85h8.7c3.7,0,5.1-1.85,5.1-4.4s-1.4-4.45-4.85-4.45h-8.95Z"/>
      <path d="M87.8,138.17v-33.2h24.4v5.8h-17.65v7.1h16.25v5.85h-16.25v8.55h18.45v5.9h-25.2Z"/>
      <path d="M114.4,138.17v-33.2h16.35c6.5,0,10,3.5,10,9.05,0,2.85-1.75,5.25-4.05,6.2,2.8,1.05,5.05,3.3,5.05,8.05,0,6.05-4.05,9.9-12.4,9.9h-14.95ZM121.1,110.72v7.2h8.75c2.75,0,4.2-1.25,4.2-3.6,0-2.55-1.35-3.6-4.6-3.6h-8.35ZM129.9,132.52c3.2,0,5.1-2.05,5.1-4.75,0-2.9-1.9-4.2-5-4.2h-8.9v8.95h8.8Z"/>
      <path d="M142.7,121.87c0-11.25,5.75-18,15.95-18s15.85,6.75,15.85,18.15-5.65,17.3-15.85,17.3-15.95-6.25-15.95-17.45ZM167.65,122.02c0-7.85-3.2-12-9-12s-9.1,4.15-9.1,12,3.35,11.35,9.1,11.35c5,0,9-3.5,9-11.35Z"/>
      <path d="M176.2,121.87c0-11.25,5.75-18,15.95-18s15.85,6.75,15.85,18.15-5.65,17.3-15.85,17.3-15.95-6.25-15.95-17.45ZM201.15,122.02c0-7.85-3.2-12-9-12s-9.1,4.15-9.1,12,3.35,11.35,9.1,11.35c5,0,9-3.5,9-11.35Z"/>
      <path d="M216.1,138.17v-27.4h-10v-5.8h27v5.8h-10.05v27.4h-6.95Z"/>
    </g>
  </g>
</svg>