<?xml version="1.0" encoding="UTF-8"?>
<svg id="Layer_2" data-name="Layer 2" xmlns="http://www.w3.org/2000/svg" viewBox="0 0 331.91 96.61">
  <defs>
    <style>
      .cls-1 {
        fill: #32499e;
      }

      .cls-2 {
        fill: #ff0;
      }
    </style>
  </defs>
  <g id="Layer_4" data-name="Layer 4">
    <path class="cls-2" d="M5.13,5.43v59.65h321.61V5.43H5.13ZM325.73,64.09H6.14V6.43h319.6v57.65Z"/>
    <path class="cls-1" d="M0,0v76.61h189.3l12.95,20h129.66V0H0ZM328.93,95.13h-124.37l-13.96-22.3,7.65-6.87,130.68.18v29ZM329.91,62.55l-132.65-.59-8.32,5.91H2V2.21h327.91v60.35Z"/>
    <g>
      <path class="cls-2" d="M216.83,89.84l3.39-19.26h14.16l-.58,3.37h-10.24l-.73,4.12h9.43l-.61,3.39h-9.43l-.87,4.96h10.7l-.61,3.42h-14.62Z"/>
      <path class="cls-2" d="M244.35,89.84l-6.06-12.94-2.29,12.94h-3.74l3.39-19.26h4.15l5.6,12.39,2.18-12.39h3.77l-3.39,19.26h-3.6Z"/>
      <path class="cls-2" d="M249.39,89.84l3.39-19.26h14.16l-.58,3.37h-10.24l-.73,4.12h9.43l-.61,3.39h-9.43l-.87,4.96h10.7l-.61,3.42h-14.62Z"/>
      <path class="cls-2" d="M276.05,89.84l.87-4.96c.06-.35.09-.67.09-.93,0-1.3-.73-1.65-2.64-1.65h-4.29l-1.33,7.54h-3.92l3.39-19.26h9.78c3.16,0,5.05,1.97,5.05,4.7,0,2.41-1.42,4.55-3.77,5.34,1.25.44,1.83,1.1,1.83,2.44,0,.38-.06.84-.15,1.33l-.96,5.45h-3.94ZM271.55,73.91l-.9,5.13h5.05c2.52,0,3.45-1.39,3.45-3.07s-.7-2.06-2.41-2.06h-5.19Z"/>
      <path class="cls-2" d="M295.94,89.84l.26-1.91c-1.22,1.62-3.6,2.58-6.24,2.58-4.61,0-7.11-4-7.11-8.53,0-6.29,4.24-12.04,11.49-12.04,4.32,0,7.28,2.44,7.28,5.95,0,.2,0,.43-.03.64h-4.06v-.23c0-1.97-1.65-3.02-3.77-3.02-3.92,0-6.76,3.39-6.76,8.41,0,3.31,1.19,5.42,4.29,5.42,2.64,0,5.05-2,5.45-4.41h-4.26l.58-3.22h8.04l-1.83,10.36h-3.34Z"/>
      <path class="cls-2" d="M304.73,89.84l1.28-7.28-4.55-11.98h4.61l2.67,7.83,5.13-7.83h4.73l-8.56,12.04-1.28,7.22h-4.03Z"/>
    </g>
  </g>
</svg>