<?xml version="1.0" encoding="UTF-8"?>
<svg id="Layer_2" data-name="Layer 2" xmlns="http://www.w3.org/2000/svg" viewBox="0 0 298.63 42.59">
  <g id="Layer_4" data-name="Layer 4">
    <g>
      <rect x="60.23" y="0" width="17.54" height="42.59" rx=".61" ry=".61"/>
      <rect x="80.31" y="0" width="17.54" height="42.59" rx=".61" ry=".61"/>
      <rect x="120.47" y="0" width="17.54" height="42.59" rx=".61" ry=".61"/>
      <rect x="100.39" y="0" width="17.54" height="42.59" rx=".61" ry=".61"/>
      <rect x="40.16" y="0" width="17.54" height="42.59" rx=".61" ry=".61"/>
      <rect width="17.54" height="42.59" rx=".61" ry=".61"/>
      <rect x="20.08" y="0" width="17.54" height="42.59" rx=".61" ry=".61"/>
      <rect x="180.7" y="0" width="17.54" height="42.59" rx=".61" ry=".61"/>
      <rect x="140.55" y="0" width="17.54" height="42.59" rx=".61" ry=".61"/>
      <rect x="281.09" y="0" width="17.54" height="42.59" rx=".61" ry=".61"/>
      <rect x="240.94" y="0" width="17.54" height="42.59" rx=".61" ry=".61"/>
      <rect x="261.01" y="0" width="17.54" height="42.59" rx=".61" ry=".61"/>
      <rect x="220.86" y="0" width="17.54" height="42.59" rx=".61" ry=".61"/>
      <rect x="160.62" y="0" width="17.54" height="42.59" rx=".61" ry=".61"/>
      <rect x="200.78" y="0" width="17.54" height="42.59" rx=".61" ry=".61"/>
    </g>
  </g>
</svg>